<svg width="62" height="48" viewBox="0 0 62 48" fill="none" xmlns="http://www.w3.org/2000/svg">
<path d="M30.4058 22.0952H25.7197V14.4708H31.279C34.3015 14.4708 36.0168 15.7808 36.0168 18.15C36.0168 20.6797 34.0199 22.0952 30.4007 22.0952H30.4058ZM31.2428 25.1218H25.7222V33.5242H31.4857C35.2547 33.5242 37.2517 32.0561 37.2517 29.2954C37.2517 26.5348 35.1979 25.1218 31.2428 25.1218ZM62 22.4716V25.5284C59.086 25.7994 57.3061 27.8975 56.2495 31.2203C55.1981 34.5306 55.0534 38.5912 55.1645 41.7258C55.2808 44.9884 52.6638 48 49.1273 48H12.8779C9.33875 48 6.72183 44.9884 6.84067 41.7258C6.95175 38.5912 6.80708 34.5306 5.75567 31.2203C4.6965 27.8975 2.914 25.7994 0 25.5284V22.4716C2.914 22.2006 4.69908 20.1025 5.75308 16.7797C6.80708 13.4694 6.95175 9.40876 6.83808 6.27418C6.72183 3.01161 9.33875 0 12.8779 0H49.1273C52.6664 0 55.2808 3.01161 55.1645 6.27418C55.0534 9.40876 55.1981 13.4694 56.2495 16.7797C57.3061 20.1025 59.086 22.2006 62 22.4716ZM41.5219 29.5414C41.5219 26.1433 39.06 23.6863 35.4046 23.2973V23.1542C38.0912 22.7301 40.1992 20.3058 40.1992 17.6003C40.1992 13.743 37.0657 11.2308 32.2891 11.2308H21.5424V36.7592H32.3433C38.0732 36.7592 41.5219 34.0337 41.5219 29.5414Z" fill="#515156"/>
</svg>
