<svg width="42" height="48" viewBox="0 0 42 48" fill="none" xmlns="http://www.w3.org/2000/svg">
<path fill-rule="evenodd" clip-rule="evenodd" d="M21 0L42 12.8552V35.145L21 48L0 35.145V12.8552L21 0ZM21 12.1337C14.7549 12.1337 9.69231 17.4465 9.69231 24.0001C9.69231 30.5537 14.7549 35.8665 21 35.8665H21.5879C24.7428 35.8665 27.7686 34.5513 29.9993 32.2102L30.2193 31.9796L27.9347 29.5822L27.7149 29.8128C26.0899 31.5181 23.886 32.4761 21.5879 32.4761H21C16.5392 32.4761 12.9231 28.6812 12.9231 24.0001C12.9231 19.3189 16.5392 15.5241 21 15.5241H21.5879C23.886 15.5241 26.0899 16.4821 27.7149 18.1874L27.9347 18.418L30.2193 16.0206L29.9993 15.79C27.7686 13.4489 24.7428 12.1337 21.5879 12.1337H21Z" fill="#515156"/>
</svg>
