<svg width="43" height="48" viewBox="0 0 43 48" fill="none" xmlns="http://www.w3.org/2000/svg">
<path d="M41.11 0H2.22141C1.28988 0 0.591009 0.792251 0.673194 1.72839L4.2252 41.7341C4.30748 42.6695 5.11249 43.6486 6.0154 43.9014L20.0178 47.8106C20.9195 48.0618 22.3934 48.0634 23.2964 47.8139L37.3162 43.9101C38.2193 43.658 39.0243 42.6878 39.1065 41.7508L42.66 1.72839C42.7422 0.792251 42.0463 0 41.11 0ZM34.3657 14.4409C34.3651 14.447 34.3603 14.4518 34.3543 14.4528C34.3482 14.4539 34.3423 14.4507 34.3397 14.445L23.3692 18.9634C23.2129 19.0278 23.1238 19.1943 23.1563 19.3608C23.189 19.5274 23.3343 19.6475 23.5032 19.6475H32.0365C32.4904 19.6475 32.9229 19.8413 33.2265 20.1805C33.5299 20.5198 33.6758 20.9727 33.6276 21.4263L32.2943 33.9971C32.2289 34.6139 31.8165 35.1378 31.2343 35.3437L22.1769 38.5468C21.8358 38.6675 21.4639 38.6685 21.122 38.5493L12.1068 35.4107C11.5211 35.2068 11.1053 34.6813 11.0394 34.0618L10.435 28.3687C10.4033 28.0698 10.4993 27.7714 10.6992 27.548C10.8992 27.3245 11.1841 27.1968 11.4832 27.1968H13.9919C14.531 27.1968 14.9831 27.6054 15.0401 28.144L15.4109 31.6434L21.653 33.8242L27.9237 31.6236L28.6907 24.3659H10.9608C10.4233 24.3659 9.97194 23.9596 9.91299 23.4226L9.57542 20.3466C9.52388 19.8775 9.78727 19.4307 10.2213 19.2509L21.5686 14.5489C21.6974 14.4956 21.7705 14.3584 21.7435 14.2212C21.7164 14.084 21.5968 13.9852 21.4577 13.9852H9.51058C9.1509 13.9852 8.84925 13.7122 8.81171 13.3528L8.46613 10.0467C8.44533 9.84771 8.50955 9.64917 8.64278 9.50038C8.776 9.3517 8.96583 9.26676 9.1649 9.26676H34.1632C34.3633 9.26676 34.554 9.35262 34.6873 9.50263C34.8206 9.65274 34.8839 9.85281 34.8613 10.0527L34.3657 14.4409Z" fill="#515156"/>
</svg>
