<svg width="31" height="48" viewBox="0 0 31 48" fill="none" xmlns="http://www.w3.org/2000/svg">
<path d="M7.15385 0C3.2029 0 0 3.22356 0 7.2C0 11.1764 3.2029 14.4 7.15385 14.4H23.8462C27.7972 14.4 31 11.1764 31 7.2C31 3.22356 27.7972 0 23.8462 0H7.15385Z" fill="#515156"/>
<path d="M23.8462 16.8C19.8951 16.8 16.6923 20.0234 16.6923 24C16.6923 27.9766 19.8951 31.2 23.8462 31.2C27.7972 31.2 31 27.9766 31 24C31 20.0234 27.7972 16.8 23.8462 16.8Z" fill="#515156"/>
<path d="M0 24C0 20.0234 3.2029 16.8 7.15385 16.8H14.3077V31.2H7.15385C3.2029 31.2 0 27.9766 0 24Z" fill="#515156"/>
<path d="M7.15385 33.6C3.2029 33.6 0 36.8234 0 40.8C0 44.7766 3.2029 48 7.15385 48C11.1049 48 14.3077 44.7766 14.3077 40.8V33.6H7.15385Z" fill="#515156"/>
</svg>
