<svg width="44" height="48" viewBox="0 0 44 48" fill="none" xmlns="http://www.w3.org/2000/svg">
<path d="M0.763408 0C0.304501 0 -0.0374268 0.359503 0.00329076 0.798895L3.87213 42.5158C3.91285 42.9552 4.30784 43.4113 4.75023 43.5294L21.1676 47.9114C21.6098 48.0295 22.3334 48.0295 22.7758 47.9117L39.243 43.5225C39.6853 43.4045 40.0808 42.9485 40.1215 42.5092L43.9967 0.798895C44.0377 0.359503 43.6954 0 43.2365 0H0.763408ZM35.7575 9.56765C35.721 9.95956 35.6577 10.6399 35.617 11.0793L35.515 12.1738C35.474 12.6131 35.4156 13.2413 35.3847 13.5697C35.354 13.8982 35.3248 14.1669 35.3195 14.1669C35.3143 14.1669 34.9345 14.1669 34.4756 14.1669H22.8344C22.3754 14.1669 21.9961 14.1669 21.9911 14.1669C21.9861 14.1669 21.6065 14.1669 21.1476 14.1669H15.0166C14.5577 14.1669 14.2157 14.5264 14.2565 14.9658L14.6141 18.8087C14.6548 19.2479 15.0638 19.6076 15.5227 19.6076H21.1477C21.6066 19.6076 21.9863 19.6076 21.9913 19.6076C21.9963 19.6076 22.3756 19.6076 22.8345 19.6076H32.5031C32.962 19.6076 33.6722 19.6076 34.0813 19.6076C34.4899 19.6076 34.7943 19.9283 34.7573 20.3202C34.7201 20.7121 34.6565 21.3926 34.6158 21.8318L33.4658 34.2208C33.4248 34.6602 33.3729 35.2215 33.3505 35.4682C33.3276 35.7148 32.9473 36.013 32.5051 36.1309L22.8041 38.7167C22.3619 38.8345 21.9945 38.932 21.9876 38.9335C21.9808 38.9349 21.6135 38.8395 21.1711 38.7215L11.4598 36.1311C11.0176 36.0132 10.6224 35.5571 10.5817 35.1177L9.95657 28.3728C9.91586 27.9334 10.2581 27.5739 10.717 27.5739H11.6033C12.0622 27.5739 12.8131 27.5739 13.2721 27.5739H14.5937C15.0526 27.5739 15.4613 27.9334 15.5023 28.3728L15.7475 31.0132C15.7882 31.4526 16.1839 31.9061 16.6271 32.0211L21.1696 33.2003C21.6125 33.3154 21.9766 33.4095 21.9786 33.4095C21.9806 33.4095 22.3446 33.3152 22.7876 33.2002L27.3383 32.018C27.7812 31.903 28.1772 31.4494 28.2183 31.0101L28.7117 25.7201C28.7528 25.2807 28.4108 24.9212 27.9519 24.9212H22.8345C22.3756 24.9212 21.9963 24.9212 21.9913 24.9212C21.9863 24.9212 21.6066 24.9212 21.1477 24.9212H10.4696C10.0106 24.9212 9.60196 24.5615 9.56125 24.1223L8.3504 11.0791C8.30968 10.6397 8.24644 9.95956 8.20989 9.56749C8.17368 9.17558 8.51928 8.8549 8.97818 8.8549H21.1477C21.6066 8.8549 21.9863 8.8549 21.9913 8.8549C21.9963 8.8549 22.3756 8.8549 22.8345 8.8549H34.9894C35.4481 8.8549 35.7939 9.17558 35.7575 9.56765Z" fill="#515156"/>
</svg>
