<svg width="48" height="48" viewBox="0 0 48 48" fill="none" xmlns="http://www.w3.org/2000/svg">
<path fill-rule="evenodd" clip-rule="evenodd" d="M19.643 16.1983C19.2693 17.7031 16.9959 26.3833 16.9959 26.3833H22.5608C22.5608 26.3833 20.0858 17.7031 19.716 16.1983H19.643Z" fill="#515156"/>
<path fill-rule="evenodd" clip-rule="evenodd" d="M0 0V48H48V0H0ZM25.3211 37.092L23.3771 30.6447H16.1832L14.382 37.092H8.48756L16.1833 11.9514H23.6334L31.4279 37.092H25.3211ZM39.3256 37.092H33.6475V18.8598H39.3256V37.092ZM36.4518 16.6157C34.6653 16.6157 33.4645 15.3415 33.5047 13.7821C33.4645 12.1382 34.6654 10.908 36.4958 10.908C38.3264 10.908 39.4687 12.1381 39.5124 13.7821C39.5124 15.3415 38.3264 16.6157 36.4518 16.6157Z" fill="#515156"/>
</svg>
