<svg width="34" height="48" viewBox="0 0 34 48" fill="none" xmlns="http://www.w3.org/2000/svg">
<path d="M10.9514 37.1206C10.9514 37.1206 9.18996 38.1886 12.2057 38.5486C15.8592 38.9846 17.7263 38.9226 21.7506 38.1266C21.7506 38.1266 22.8109 38.8186 24.288 39.4186C15.2619 43.4447 3.86338 39.1826 10.9514 37.1206ZM9.8469 31.8665C9.8469 31.8665 7.87224 33.3885 10.888 33.7146C14.7912 34.1326 17.8723 34.1686 23.2066 33.0985C23.2066 33.0985 23.9442 33.8766 25.1025 34.3026C14.1938 37.6246 2.03854 34.5626 9.8469 31.8665ZM19.1439 22.9504C21.3683 25.6164 18.56 28.0165 18.56 28.0165C18.56 28.0165 24.2055 24.9804 21.6123 21.1803C19.19 17.6363 17.3326 15.8763 27.3883 9.80416C27.3883 9.80216 11.6064 13.9062 19.1439 22.9504ZM31.0803 41.0087C31.0803 41.0087 32.3845 42.1267 29.6454 42.9907C24.436 44.6347 7.96253 45.1287 3.38892 43.0567C1.74465 42.3107 4.82958 41.2767 5.7977 41.0607C6.81 40.8327 7.38818 40.8747 7.38818 40.8747C5.55759 39.5326 -4.43673 43.5087 2.31131 44.6487C20.7133 47.7548 35.8536 43.2487 31.0803 41.0087ZM11.7985 26.4204C11.7985 26.4204 3.41965 28.4925 8.83268 29.2445C11.1166 29.5625 15.6729 29.4905 19.9161 29.1205C23.3852 28.8165 26.8659 28.1665 26.8659 28.1665C26.8659 28.1665 25.6423 28.7105 24.7567 29.3405C16.2492 31.6705 -0.187752 30.5865 4.54529 28.2045C8.54455 26.1924 11.7985 26.4204 11.7985 26.4204ZM26.8274 35.1686C35.4771 30.4885 31.4779 25.9904 28.6869 26.5984C28.0049 26.7464 27.6976 26.8744 27.6976 26.8744C27.6976 26.8744 27.9512 26.4604 28.4371 26.2804C33.9597 24.2584 38.2067 32.2425 26.6546 35.4046C26.6546 35.4026 26.789 35.2806 26.8274 35.1686ZM21.6123 0C21.6123 0 26.4029 4.98808 17.0694 12.6602C9.58567 18.8143 15.3637 22.3244 17.0675 26.3324C12.6994 22.2264 9.49346 18.6163 11.6429 15.2543C14.8008 10.3162 23.5466 7.92413 21.6123 0M12.6475 47.8488C20.9496 48.4028 33.6984 47.5428 34 43.4527C34 43.4527 33.4199 45.0027 27.1386 46.2348C20.0544 47.6228 11.3125 47.4608 6.13001 46.5708C6.13001 46.5688 7.19225 47.4848 12.6475 47.8488Z" fill="#515156"/>
</svg>
