<svg width="49" height="48" viewBox="0 0 49 48" fill="none" xmlns="http://www.w3.org/2000/svg">
<path d="M0.333374 0H48.3334V48H0.333374V0ZM44.4014 36.552C44.0514 34.362 42.6254 32.522 38.3954 30.806C36.9234 30.116 35.2874 29.636 34.8014 28.526C34.6194 27.866 34.5914 27.506 34.7094 27.116C35.0094 25.824 36.5394 25.436 37.7394 25.796C38.5194 26.036 39.2394 26.636 39.6914 27.596C41.7594 26.244 41.7594 26.244 43.2014 25.346C42.6614 24.506 42.3934 24.144 42.0294 23.786C40.7694 22.376 39.0914 21.656 36.3614 21.718L34.9514 21.896C33.5994 22.226 32.3114 22.946 31.5314 23.906C29.2514 26.488 29.9094 30.988 32.6694 32.848C35.3994 34.888 39.3914 35.336 39.9014 37.258C40.3814 39.598 38.1614 40.348 35.9694 40.078C34.3474 39.718 33.4494 38.906 32.4594 37.406L28.7994 39.508C29.2194 40.468 29.6994 40.886 30.4194 41.726C33.8994 45.238 42.5994 45.058 44.1614 39.718C44.2194 39.538 44.6414 38.308 44.3094 36.418L44.4014 36.552ZM26.4354 22.062H21.9394C21.9394 25.938 21.9214 29.79 21.9214 33.672C21.9214 36.136 22.0474 38.398 21.6454 39.094C20.9854 40.472 19.2854 40.296 18.5134 40.054C17.7214 39.662 17.3194 39.122 16.8534 38.344C16.7274 38.134 16.6334 37.952 16.5994 37.952L12.9494 40.202C13.5594 41.462 14.4494 42.546 15.5974 43.236C17.3074 44.256 19.6054 44.586 22.0114 44.046C23.5774 43.594 24.9274 42.664 25.6334 41.224C26.6534 39.364 26.4374 37.084 26.4274 34.532C26.4514 30.424 26.4274 26.314 26.4274 22.174L26.4354 22.062Z" fill="#515156"/>
</svg>
