<svg width="49" height="48" viewBox="0 0 49 48" fill="none" xmlns="http://www.w3.org/2000/svg">
<path d="M17.0681 13.6837C15.8536 13.6837 15.0293 13.8018 14.6007 13.9227V21.729C15.1117 21.8444 15.7355 21.8829 16.5982 21.8829C19.7774 21.8829 21.7392 20.2755 21.7392 17.5662C21.7365 15.1372 20.0494 13.6837 17.0681 13.6837Z" fill="#515156"/>
<path d="M45.8505 0H3.72791C2.104 0 0.787842 1.31341 0.787842 2.93182V45.0517C0.787842 46.6729 2.104 47.989 3.72791 47.989H45.8505C47.4717 47.989 48.7878 46.6729 48.7878 45.0517V2.93457C48.7878 1.31341 47.4717 0 45.8505 0ZM25.2261 23.6909C23.19 25.6143 20.1648 26.4771 16.6395 26.4771C15.8509 26.4771 15.1475 26.4386 14.5979 26.3589V35.8166H8.67106V9.7242C10.5148 9.4137 13.1031 9.1774 16.7549 9.1774C20.4396 9.1774 23.0719 9.88082 24.8332 11.2959C26.5285 12.6313 27.6633 14.8295 27.6633 17.4178C27.6633 20.0062 26.7978 22.1961 25.2261 23.6909ZM34.159 36.2068C31.642 36.2068 29.4081 35.6627 27.9546 34.8741L29.0125 30.5987C30.1116 31.2609 32.3894 32.0467 34.159 32.0467C35.9587 32.0467 36.7061 31.4202 36.7061 30.4365C36.7061 29.4584 36.1181 28.9885 33.8842 28.2411C29.922 26.9085 28.3887 24.7488 28.4272 22.4736C28.4272 18.9071 31.4882 16.1923 36.2362 16.1923C38.4729 16.1923 40.4732 16.7062 41.6493 17.2914L40.5914 21.413C39.7286 20.9404 38.0827 20.3167 36.4313 20.3167C34.9833 20.3167 34.1617 20.9047 34.1617 21.8856C34.1617 22.7869 34.9008 23.2567 37.2556 24.0838C40.9046 25.3368 42.4378 27.1832 42.4736 30.0024C42.4736 33.5772 39.6434 36.2068 34.159 36.2068Z" fill="#515156"/>
</svg>
