<svg width="53" height="47" viewBox="0 0 53 47" fill="none" xmlns="http://www.w3.org/2000/svg">
<path d="M31.2442 23.4538C31.2442 26.0598 29.1237 28.1725 26.5079 28.1725C23.892 28.1725 21.7715 26.0598 21.7715 23.4538C21.7715 20.8478 23.892 18.7352 26.5079 18.7352C29.1237 18.7352 31.2442 20.8478 31.2442 23.4538Z" fill="#515156"/>
<path d="M26.5059 34.2618C26.1109 34.2716 25.6451 34.2775 25.1774 34.2775C19.6529 34.2775 14.325 33.4453 9.31155 31.9005L9.69086 32.0004C7.03575 31.1467 4.73439 29.8878 2.73176 28.2744L2.77303 28.3058C1.22241 27.1878 0.178842 25.457 0.00196529 23.4755L0 23.4501C0 20.3291 3.43336 17.2748 9.19953 15.2816C14.1363 13.6624 19.818 12.7284 25.7178 12.7284C25.991 12.7284 26.2642 12.7304 26.5373 12.7343H26.4961C26.724 12.7304 26.9913 12.7284 27.2606 12.7284C33.0877 12.7284 38.6986 13.6467 43.9577 15.3462L43.5745 15.2385C46.1392 16.0687 48.3658 17.2669 50.3213 18.7902L50.2741 18.755C51.7972 19.824 52.8251 21.5039 52.998 23.4285L53 23.454C53 26.6963 49.1598 29.9778 42.9711 32.018C38.3271 33.4453 32.9874 34.2677 27.4551 34.2677C27.121 34.2677 26.7889 34.2637 26.4568 34.2579H26.5059V34.2618ZM26.5059 14.9957C26.2976 14.9918 26.0499 14.9918 25.8023 14.9918C20.1403 14.9918 14.6866 15.8768 9.57097 17.5156L9.94634 17.4118C4.64399 19.2542 2.26598 21.7741 2.26598 23.456C2.26598 25.2044 4.82283 27.9592 10.4278 29.8662C14.8478 31.2309 19.9281 32.018 25.1931 32.018C25.6549 32.018 26.1148 32.0121 26.5727 32.0004L26.5059 32.0023C26.7928 32.0082 27.1309 32.0121 27.4689 32.0121C32.7437 32.0121 37.8338 31.2289 42.6311 29.7742L42.2636 29.8701C48.0809 27.9435 50.7537 25.1887 50.7537 23.4481C50.5532 22.199 49.8457 21.1456 48.8552 20.4819L48.8395 20.4721C47.1375 19.1524 45.1526 18.0893 43.0026 17.3903L42.865 17.3511C38.2112 15.8513 32.8558 14.9859 27.2999 14.9859C27.0208 14.9859 26.7437 14.9879 26.4666 14.9918H26.5079L26.5059 14.9957Z" fill="#515156"/>
<path d="M15.7596 46.9728C15.7282 46.9728 15.6909 46.9747 15.6555 46.9747C14.7652 46.9747 13.93 46.7417 13.2087 46.3345L13.2342 46.3482C10.5261 44.7818 9.58273 40.2943 10.7187 34.3245C12.0885 28.2001 14.3093 22.7845 17.2906 17.8779L17.155 18.1207C20.101 12.9224 23.6601 8.47589 27.8167 4.66575L27.856 4.63051C29.67 2.97802 31.7925 1.62117 34.1194 0.659823L34.2629 0.606959C35.0627 0.223204 36.0022 0 36.9946 0C37.9792 0 38.9128 0.221246 39.746 0.614791L39.7067 0.599127C42.5269 2.21638 43.4624 7.17778 42.1398 13.5332C40.7248 19.3424 38.5669 24.4585 35.729 29.1164L35.8665 28.8756C33.0129 34.025 29.5599 38.4342 25.5173 42.2267L25.4898 42.2522C23.6071 43.9693 21.3961 45.3653 18.9631 46.3286L18.8176 46.3795C17.9136 46.7339 16.8681 46.9512 15.7734 46.9767H15.7616L15.7596 46.9728ZM18.1278 18.6865L19.1085 19.2504C16.3944 23.7145 14.2641 28.8952 13.0043 34.4048L12.9375 34.7572C11.89 40.2571 12.9001 43.564 14.3525 44.402C14.7279 44.6017 15.172 44.7172 15.6437 44.7172C15.683 44.7172 15.7243 44.7172 15.7636 44.7153H15.7577C17.6345 44.7153 20.5884 43.5307 24.004 40.5605C27.8875 36.9051 31.1852 32.6838 33.7755 28.0219L33.9091 27.7576C36.4994 23.5363 38.5688 18.6474 39.8541 13.451L39.9288 13.0947C41.165 7.1073 40.0978 3.44205 38.5806 2.56489C38.1129 2.38085 37.5705 2.27512 37.0045 2.27512C36.2891 2.27512 35.613 2.44546 35.0156 2.74502L35.0411 2.73327C32.8439 3.64371 30.9572 4.85959 29.328 6.34762L29.3418 6.33587C25.3306 10.0187 21.9287 14.2792 19.248 18.9998L19.1124 19.2582L18.1278 18.6865Z" fill="#515156"/>
<path d="M37.2541 47C34.6874 47 31.4368 45.4591 28.0369 42.5438C23.7623 38.6612 20.1423 34.1599 17.2985 29.1632L17.157 28.895C14.3466 24.2958 12.1435 18.9585 10.8386 13.2805L10.7678 12.9183C10.4495 11.5301 10.2667 9.93829 10.2667 8.30342C10.2667 7.27159 10.3394 6.25933 10.4789 5.26666L10.4652 5.38022C10.6322 3.42621 11.6601 1.74238 13.1616 0.683142L13.1812 0.669437C15.9916 -0.955648 20.7771 0.716427 25.6451 5.03171C29.6189 8.77919 33.011 13.0847 35.7035 17.8366L35.845 18.1068C38.6514 22.6042 40.8702 27.8201 42.2164 33.3747L42.2911 33.7389C42.6115 35.1271 42.7962 36.7228 42.7962 38.3596C42.7962 39.4894 42.7097 40.5976 42.5407 41.6803L42.5564 41.5589C42.354 43.5599 41.2908 45.2809 39.748 46.3676L39.7264 46.3813C39.0425 46.7709 38.2249 47 37.3543 47C37.3189 47 37.2836 47 37.2482 46.998H37.2541V47ZM19.1184 27.7672C21.9838 32.8011 25.4407 37.1085 29.4774 40.7992L29.5167 40.8345C33.7735 44.4821 37.1499 45.2711 38.6121 44.4253C40.1313 43.5521 41.2436 39.9691 40.0939 34.1795C38.7143 28.521 36.5819 23.5401 33.7676 19.0231L33.8954 19.2424C31.1852 14.4337 27.9465 10.3103 24.1711 6.74294L24.1475 6.72141C19.5606 2.66065 15.8442 1.74826 14.325 2.6215C13.3954 3.3753 12.7842 4.48545 12.7036 5.74048V5.75419C12.5956 6.51778 12.5346 7.39885 12.5346 8.29558C12.5346 9.77774 12.7036 11.2188 13.022 12.605L12.9965 12.4758C14.3191 18.2556 16.4298 23.3599 19.25 27.9904L19.1203 27.7614L19.1184 27.7672Z" fill="#515156"/>
</svg>
