<svg width="50" height="48" viewBox="0 0 50 48" fill="none" xmlns="http://www.w3.org/2000/svg">
<path d="M41.4489 48H8.36038C3.87142 48 0.212158 44.3436 0.212158 39.8582V8.14176C0.212158 3.65636 3.87142 0 8.36038 0H41.4274C45.94 0 49.5756 3.65636 49.5756 8.14176V39.8367C49.5972 44.3436 45.9379 48 41.4489 48Z" fill="#515156"/>
<path d="M19.2692 22.3172L25.5555 34.3844C25.6675 34.5632 25.6007 34.7441 25.4197 34.7441H21.5126C21.2648 34.7441 21.1527 34.6773 21.0406 34.4534C19.6032 31.4925 18.1443 28.5317 16.64 25.3469H16.5948C15.2479 28.353 13.7652 31.5162 12.33 34.477C12.2179 34.6558 12.1058 34.7247 11.9248 34.7247H8.2246C8.00048 34.7247 7.97677 34.5459 8.09099 34.4103L14.2415 22.7005L8.29356 10.8571C8.1578 10.6784 8.29356 10.5427 8.42718 10.5427H12.289C12.5131 10.5427 12.6037 10.5879 12.692 10.7904C14.1057 13.7512 15.5431 16.8025 16.89 19.7848H16.9353C18.2369 16.824 19.6744 13.7512 21.0665 10.8119C21.1786 10.6332 21.2454 10.5212 21.4717 10.5212H25.0857C25.2645 10.5212 25.3335 10.6568 25.2214 10.8356L19.2692 22.3172ZM26.6567 25.9735C26.6567 20.7474 30.1371 16.6647 35.6583 16.6647C36.1303 16.6647 36.3759 16.6647 36.8263 16.7099V10.7667C36.8263 10.631 36.9384 10.5427 37.0505 10.5427H40.5977C40.7765 10.5427 40.8218 10.6095 40.8218 10.7214V31.3138C40.8218 31.9189 40.8218 32.6812 40.9339 33.5123C40.9339 33.648 40.8886 33.6911 40.755 33.76C38.8693 34.6579 36.8932 35.0606 35.0075 35.0606C30.1349 35.08 26.6545 32.0761 26.6567 25.9735ZM36.8242 20.2327C36.5096 20.0971 36.0613 20.0088 35.5225 20.0088C32.693 20.0088 30.719 22.1836 30.719 25.7969C30.719 29.9249 32.7404 31.5851 35.2769 31.5851C35.8156 31.5851 36.3996 31.5184 36.8263 31.3375V20.2327H36.8242Z" fill="#212124"/>
</svg>
