<svg width="24" height="16" viewBox="0 0 24 16" fill="none" xmlns="http://www.w3.org/2000/svg">
<path d="M22 2.5H15V0.5H22V2.5ZM23.726 12.5C23.284 13.797 21.697 15.5 18.625 15.5C15.551 15.5 13.061 13.771 13.061 9.825C13.061 5.915 15.386 3.905 18.527 3.905C21.609 3.905 23.491 5.687 23.902 8.331C23.98 8.837 24.011 9.519 23.997 10.471H15.97C16.1 13.682 19.453 13.783 20.558 12.5H23.726ZM16.04 8.5H21.005C20.9 6.953 19.869 6.281 18.528 6.281C17.062 6.281 16.251 7.049 16.04 8.5ZM6.466 15.488H0V0.521H6.953C12.429 0.602 12.533 5.965 9.673 7.427C13.134 8.687 13.25 15.488 6.466 15.488ZM3 6.5H6.584C9.092 6.5 9.49 3.5 6.272 3.5H3V6.5ZM6.391 9.5H3V12.516H6.341C9.396 12.516 9.209 9.5 6.391 9.5Z" fill="#818181"/>
</svg>
