<svg width="21" height="20" viewBox="0 0 21 20" fill="none" xmlns="http://www.w3.org/2000/svg">
<path d="M15.1998 12C15.2798 11.34 15.3398 10.68 15.3398 10C15.3398 9.32 15.2798 8.66 15.1998 8H18.5798C18.7398 8.64 18.8398 9.31 18.8398 10C18.8398 10.69 18.7398 11.36 18.5798 12M13.4298 17.56C14.0298 16.45 14.4898 15.25 14.8098 14H17.7598C16.7998 15.65 15.2698 16.93 13.4298 17.56ZM13.1798 12H8.49984C8.39984 11.34 8.33984 10.68 8.33984 10C8.33984 9.32 8.39984 8.65 8.49984 8H13.1798C13.2698 8.65 13.3398 9.32 13.3398 10C13.3398 10.68 13.2698 11.34 13.1798 12ZM10.8398 17.96C10.0098 16.76 9.33984 15.43 8.92984 14H12.7498C12.3398 15.43 11.6698 16.76 10.8398 17.96ZM6.83984 6H3.91984C4.86984 4.34 6.40984 3.06 8.23984 2.44C7.63984 3.55 7.18984 4.75 6.83984 6ZM3.91984 14H6.83984C7.18984 15.25 7.63984 16.45 8.23984 17.56C6.40984 16.93 4.86984 15.65 3.91984 14ZM3.09984 12C2.93984 11.36 2.83984 10.69 2.83984 10C2.83984 9.31 2.93984 8.64 3.09984 8H6.47984C6.39984 8.66 6.33984 9.32 6.33984 10C6.33984 10.68 6.39984 11.34 6.47984 12M10.8398 2.03C11.6698 3.23 12.3398 4.57 12.7498 6H8.92984C9.33984 4.57 10.0098 3.23 10.8398 2.03ZM17.7598 6H14.8098C14.4898 4.75 14.0298 3.55 13.4298 2.44C15.2698 3.07 16.7998 4.34 17.7598 6ZM10.8398 0C5.30984 0 0.839844 4.5 0.839844 10C0.839844 12.6522 1.89341 15.1957 3.76878 17.0711C4.69736 17.9997 5.79975 18.7362 7.01301 19.2388C8.22626 19.7413 9.52662 20 10.8398 20C13.492 20 16.0355 18.9464 17.9109 17.0711C19.7863 15.1957 20.8398 12.6522 20.8398 10C20.8398 8.68678 20.5812 7.38642 20.0786 6.17317C19.5761 4.95991 18.8395 3.85752 17.9109 2.92893C16.9823 2.00035 15.8799 1.26375 14.6667 0.761205C13.4534 0.258658 12.1531 0 10.8398 0Z" fill="white"/>
</svg>
